<svg xmlns="http://www.w3.org/2000/svg" viewBox="0 0 512 512">
  <rect width="512" height="512" rx="112" fill="#1f7a5c"/>
  <circle cx="256" cy="224" r="112" fill="#f7f8f4"/>
  <path fill="#f7c85f" d="M256 144c39.8 0 72 32.2 72 72s-32.2 72-72 72-72-32.2-72-72 32.2-72 72-72z"/>
  <path fill="#c9673f" d="M142 365c22-42 62-67 114-67s92 25 114 67c8 15-3 33-20 33H162c-17 0-28-18-20-33z"/>
  <path fill="none" stroke="#f7f8f4" stroke-linecap="round" stroke-linejoin="round" stroke-width="28" d="M174 142c-18 20-28 47-28 76m192-76c18 20 28 47 28 76"/>
</svg>
